# xmcd
#
# Track frame offsets:
#	150
#	12718
#	25802
#	36782
#	50089
#	63786
#	74807
#	91374
#	107704
#	121595
#
# Disc length: 1787 seconds
#
# Revision: 1
# Processed by: cddbd v1.5.1PL2 Copyright (c) Steve Scherf et al.
# Submitted via: audiograbber 1.83.01
#
DISCID=8706f90a
DTITLE=Charlie Rich - Greatest Hits
DYEAR=1900
DGENRE=Country
TTITLE0=The Most Beautiful Girl
TTITLE1=A Very Special Love Song
TTITLE2=Since I Fell For You
TTITLE3=My Elusive Dreams
TTITLE4=Every Time You Touch Me (I Get High)
TTITLE5=Behind Closed Doors
TTITLE6=Life Has It's Little Ups And Downs
TTITLE7=All Over Me
TTITLE8=I Love My Friend
TTITLE9=America, The Beautiful
EXTD=
EXTT0=
EXTT1=
EXTT2=
EXTT3=
EXTT4=
EXTT5=
EXTT6=
EXTT7=
EXTT8=
EXTT9=
PLAYORDER=
